<?xml version="1.0" encoding="UTF-8"?>
<svg id="Calque_2" data-name="Calque 2" xmlns="http://www.w3.org/2000/svg" viewBox="0 0 3.58 3.58">
  <defs>
    <style>
      .cls-1 {
        fill: #fff;
        stroke-width: 0px;
      }
    </style>
  </defs>
  <g id="Layer_1" data-name="Layer 1">
    <path class="cls-1" d="m1.79,0c.49,0,.94.2,1.27.52.32.32.52.77.52,1.26s-.2.94-.52,1.27c-.32.32-.77.53-1.27.53s-.94-.2-1.27-.53c-.32-.32-.52-.77-.52-1.27S.2.85.52.52c.32-.32.77-.52,1.27-.52h0Zm-.08,3.3v-.58c-.16,0-.32.04-.46.1-.02,0-.04.02-.06.02.01.03.03.05.04.08.09.16.2.29.32.37.05,0,.11.02.17.02h0ZM2.86.72s-.02-.02-.04-.04c-.07.05-.14.09-.21.13.1.26.16.56.17.89h.52c-.02-.38-.19-.73-.44-.99h0Zm-.17-.14c-.09-.07-.2-.13-.31-.18.04.06.08.12.12.19.01.03.03.05.04.08.05-.03.1-.06.14-.09h0Zm-.65-.28c-.06,0-.11-.01-.17-.02v.58c.16,0,.32-.04.46-.1.02,0,.04-.02.06-.03-.01-.03-.03-.05-.04-.08-.09-.16-.2-.29-.32-.37h0Zm-.33-.02c-.06,0-.11,0-.17.02-.12.08-.23.2-.32.37-.01.02-.03.05-.04.08.02,0,.04.02.06.03.14.05.3.09.46.1V.28h0Zm-.51.12c-.11.05-.21.11-.31.18.05.03.1.06.15.09.01-.03.03-.06.04-.08.04-.07.08-.13.12-.19h0Zm-.44.29s-.02.02-.04.04c-.26.26-.42.6-.44.99h.52c0-.33.07-.63.17-.89-.07-.04-.14-.08-.21-.13h0Zm-.48,1.19c.02.38.19.73.44.99l.04.04c.07-.05.14-.09.21-.13-.1-.26-.16-.56-.17-.89H.28Zm.61,1.13c.09.07.2.13.31.18-.04-.06-.08-.12-.12-.18-.01-.03-.03-.05-.04-.08-.05.03-.1.06-.15.09h0Zm.99.3c.06,0,.11,0,.17-.02.12-.07.23-.2.32-.37.01-.02.03-.05.04-.08-.02,0-.04-.02-.06-.02-.15-.05-.3-.09-.46-.1v.58h0Zm.51-.12c.11-.05.21-.11.31-.18-.05-.03-.09-.06-.14-.09-.01.03-.03.06-.04.08-.04.07-.08.13-.12.18h0Zm.44-.29l.04-.04c.26-.26.42-.6.44-.99h-.52c0,.33-.07.63-.17.89.07.04.14.08.21.13h0Zm-.36-2.01s-.05.02-.07.03c-.16.06-.34.1-.52.11v.68h.74c0-.3-.06-.58-.15-.82h0Zm-.76.13c-.18,0-.36-.05-.52-.11-.02,0-.05-.02-.07-.03-.09.23-.14.51-.15.82h.74v-.68h0Zm0,1.53v-.68h-.74c0,.3.06.58.15.82.02,0,.05-.02.07-.03.16-.06.34-.1.52-.11h0Zm.16,0c.18,0,.36.05.52.11.02,0,.05.02.07.03.09-.23.14-.52.15-.82h-.74v.68h0Z"/>
  </g>
</svg>