<?xml version="1.0" encoding="UTF-8"?>
<svg id="Calque_2" data-name="Calque 2" xmlns="http://www.w3.org/2000/svg" viewBox="0 0 3.47 3.36">
  <defs>
    <style>
      .cls-1 {
        fill: #fff;
        stroke-width: 0px;
      }
    </style>
  </defs>
  <g id="Layer_1" data-name="Layer 1">
    <path class="cls-1" d="m1.74.61c.24,0,.44.2.44.44s-.2.44-.44.44-.44-.2-.44-.44.2-.44.44-.44h0Zm-.96.87c-.06-.13-.09-.27-.09-.43,0-.29.12-.55.31-.74.19-.19.45-.31.74-.31s.55.12.74.31c.19.19.31.45.31.74,0,.15-.03.29-.09.43h.37s.08.03.08.07l.33,1.71s-.02.09-.07.1c0,0,0,0-.01,0H.08s-.08-.04-.08-.08c0,0,0-.01,0-.02l.33-1.71s.04-.07.08-.07h.37Zm.09.17h-.39l-.3,1.55h3.11l-.3-1.55h-.39l-.02.03c-.12.17-.29.29-.48.37l-.25.33c-.05.06-.13.07-.19.03,0,0-.02-.02-.03-.03l-.25-.33c-.2-.07-.36-.2-.49-.37l-.02-.03h0Zm1.41-1.14c-.14-.14-.33-.23-.55-.23s-.41.09-.55.23c-.14.14-.23.33-.23.55,0,.17.06.33.15.46.09.13.23.23.39.28.03,0,.05.02.07.05l.17.22.17-.22h0s.04-.04.07-.05c.16-.05.29-.15.39-.28.09-.13.15-.29.15-.46,0-.21-.09-.41-.23-.55h0Zm-.55.27c-.15,0-.28.12-.28.28s.12.28.28.28.28-.12.28-.28-.12-.28-.28-.28h0Z"/>
  </g>
</svg>