<?xml version="1.0" encoding="UTF-8"?>
<svg id="Calque_2" data-name="Calque 2" xmlns="http://www.w3.org/2000/svg" viewBox="0 0 448.64 448.64">
  <defs>
    <style>
      .cls-1 {
        fill: #fff;
      }

      .cls-1, .cls-2 {
        stroke-width: 0px;
      }

      .cls-2 {
        fill: #003e2b;
      }
    </style>
  </defs>
  <g id="Layer_1" data-name="Layer 1">
    <g>
      <path class="cls-1" d="m448.64,224.32C448.64,100.43,348.21,0,224.32,0S0,100.43,0,224.32c0,111.97,82.03,204.77,189.27,221.59v-156.75h-56.96v-64.84h56.96v-49.42c0-56.22,33.49-87.27,84.73-87.27,24.54,0,50.21,4.38,50.21,4.38v55.2h-28.29c-27.87,0-36.56,17.29-36.56,35.03v42.08h62.21l-9.94,64.84h-52.27v156.75c107.24-16.83,189.27-109.63,189.27-221.59Z"/>
      <path class="cls-2" d="m311.64,289.16l9.94-64.84h-62.21v-42.08c0-17.74,8.69-35.03,36.56-35.03h28.29v-55.2s-25.67-4.38-50.21-4.38c-51.24,0-84.73,31.06-84.73,87.27v49.42h-56.96v64.84h56.96v156.75c11.42,1.79,23.13,2.73,35.05,2.73s23.63-.93,35.05-2.73v-156.75h52.27Z"/>
    </g>
  </g>
</svg>