<?xml version="1.0" encoding="UTF-8"?>
<svg id="Calque_2" data-name="Calque 2" xmlns="http://www.w3.org/2000/svg" viewBox="0 0 448.64 448.64">
  <defs>
    <style>
      .cls-1 {
        fill: #fff;
      }

      .cls-1, .cls-2 {
        stroke-width: 0px;
      }

      .cls-2 {
        fill: #003e2b;
      }
    </style>
  </defs>
  <g id="Layer_1" data-name="Layer 1">
    <g>
      <circle class="cls-1" cx="224.32" cy="224.32" r="224.32" transform="translate(-92.92 224.32) rotate(-45)"/>
      <path class="cls-2" d="m340.89,192.98c0-29.75-24.12-53.87-53.87-53.87h-137.74c-29.75,0-53.87,24.12-53.87,53.87v64.1c0,29.75,24.12,53.87,53.87,53.87h137.74c29.75,0,53.87-24.12,53.87-53.87v-64.1Zm-81,36.85l-61.77,30.56c-2.42,1.31-10.65-.44-10.65-3.2v-62.73c0-2.79,8.29-4.54,10.72-3.16l59.12,32.17c2.48,1.41,5.08,5,2.57,6.36Z"/>
    </g>
  </g>
</svg>