<?xml version="1.0" encoding="UTF-8"?>
<svg id="Calque_2" data-name="Calque 2" xmlns="http://www.w3.org/2000/svg" viewBox="0 0 448.64 448.64">
  <defs>
    <style>
      .cls-1 {
        fill: #fff;
      }

      .cls-1, .cls-2 {
        stroke-width: 0px;
      }

      .cls-2 {
        fill: #003e2b;
      }
    </style>
  </defs>
  <g id="Layer_1" data-name="Layer 1">
    <g>
      <circle class="cls-1" cx="224.32" cy="224.32" r="224.32" transform="translate(-92.92 224.32) rotate(-45)"/>
      <g>
        <path class="cls-2" d="m293.95,139.46c-8.51,0-15.42,6.9-15.42,15.42s6.9,15.42,15.42,15.42,15.42-6.9,15.42-15.42-6.9-15.42-15.42-15.42Z"/>
        <path class="cls-2" d="m225.4,159.23c-35.72,0-64.77,29.06-64.77,64.77s29.06,64.77,64.77,64.77,64.77-29.06,64.77-64.77-29.06-64.77-64.77-64.77Zm0,106.26c-22.88,0-41.49-18.61-41.49-41.49s18.61-41.49,41.49-41.49,41.49,18.61,41.49,41.49-18.61,41.49-41.49,41.49Z"/>
        <path class="cls-2" d="m276.82,355.52h-105.01c-43.56,0-79-35.44-79-79v-105.01c0-43.56,35.44-79,79-79h105.01c43.56,0,79.01,35.44,79.01,79v105.01c0,43.56-35.44,79-79.01,79Zm-105.01-238.27c-29.92,0-54.26,24.34-54.26,54.26v105.01c0,29.92,24.34,54.26,54.26,54.26h105.01c29.92,0,54.26-24.34,54.26-54.26v-105.01c0-29.92-24.34-54.26-54.26-54.26h-105.01Z"/>
      </g>
    </g>
  </g>
</svg>