<?xml version="1.0" encoding="UTF-8"?>
<svg id="Calque_2" data-name="Calque 2" xmlns="http://www.w3.org/2000/svg" viewBox="0 0 3.58 3.58">
  <defs>
    <style>
      .cls-1 {
        fill: #fff;
        stroke-width: 0px;
      }
    </style>
  </defs>
  <g id="Layer_1" data-name="Layer 1">
    <path class="cls-1" d="m.82.13l.53.68h0s.04.08.05.12c.01.04.01.09,0,.13,0,.05-.02.09-.04.13h0s-.05.07-.09.1h0s-.26.19-.26.19c-.02.04-.04.12.04.22.11.16.24.31.38.45h0s0,0,0,0c.14.14.29.27.45.38.1.07.18.05.22.03l.19-.26h0s.06-.07.1-.09c.04-.02.08-.04.13-.04h0s.09,0,.13,0h0s.08.03.11.06h0s.68.53.68.53h.01s.06.07.08.11h0s.03.09.04.14c0,.05,0,.1-.02.14-.02.04-.04.08-.08.12-.04.04-.1.08-.16.12h0c-.06.04-.14.08-.22.1-.37.12-.77.1-1.15-.02-.4-.13-.79-.39-1.11-.71-.32-.32-.57-.71-.71-1.11C-.02,1.27-.04.87.08.5c.03-.09.07-.16.1-.23h0s0,0,0,0c.04-.06.08-.12.12-.16.04-.04.07-.06.12-.08h.01S.52,0,.57,0c.05,0,.1.01.14.04h0s.1.09.1.09h0Zm.31.85h0L.6.3h0s-.01-.01-.02-.02h0s-.02,0-.03,0c0,0-.02,0-.02,0h0s-.01.01-.02.02c-.03.03-.06.07-.09.12H.42s-.06.11-.08.17c-.1.31-.08.65.03.98.12.36.35.71.64,1,.29.29.64.52,1,.64.33.11.67.13.98.03.06-.02.12-.05.17-.08h0s.09-.06.12-.09c0,0,.01-.01.02-.02h0s0,0,0,0c0,0,0-.02,0-.03,0,0,0-.02,0-.03h0s0-.01-.01-.02h0s-.68-.53-.68-.53h0s-.01,0-.02-.01h0s-.01,0-.02,0h0s-.02,0-.02,0h0s-.01,0-.02.02h0l-.21.29s-.03.03-.04.04c0,0-.24.17-.54-.03-.18-.12-.34-.26-.49-.41h0c-.15-.15-.29-.31-.41-.49-.21-.3-.03-.54-.03-.54h0s.02-.03.04-.04l.28-.21h0s.01-.02.01-.02h0s0-.02,0-.03c0,0,0-.02,0-.02,0,0,0-.01,0-.02h0Z"/>
  </g>
</svg>